<?xml version="1.0" standalone="no"?>
<!DOCTYPE svg PUBLIC "-//W3C//DTD SVG 20010904//EN"
 "http://www.w3.org/TR/2001/REC-SVG-20010904/DTD/svg10.dtd">
<svg version="1.0" xmlns="http://www.w3.org/2000/svg"
 width="1152.000000pt" height="1152.000000pt" viewBox="0 0 1152.000000 1152.000000"
 preserveAspectRatio="xMidYMid meet">
<metadata>
Created by potrace 1.14, written by Peter Selinger 2001-2017
</metadata>
<g transform="translate(0.000000,1152.000000) scale(0.100000,-0.100000)"
fill="#000000" stroke="none">
<path d="M5683 11501 c-54 -25 -118 -91 -305 -316 -66 -79 -198 -246 -198
-251 0 -2 -9 -15 -21 -27 -11 -12 -56 -71 -99 -132 -44 -60 -83 -114 -87 -120
-15 -18 -188 -279 -199 -300 -6 -11 -41 -68 -77 -126 -113 -184 -205 -351
-321 -584 -72 -145 -166 -343 -166 -349 0 -2 -10 -25 -22 -52 -12 -27 -23 -51
-23 -54 -1 -3 -9 -22 -18 -44 -9 -21 -17 -40 -17 -43 0 -2 -8 -23 -19 -46 -81
-182 -270 -756 -316 -962 -6 -25 -11 -45 -30 -120 -15 -61 -20 -80 -29 -125
-6 -27 -27 -125 -31 -150 -2 -8 -4 -15 -5 -15 -1 0 -3 -11 -6 -25 -8 -52 -13
-77 -23 -130 -5 -30 -13 -75 -16 -100 -4 -24 -8 -47 -10 -50 -2 -3 -6 -34 -10
-70 -4 -36 -8 -67 -10 -70 -2 -3 -6 -32 -10 -65 -4 -33 -9 -76 -11 -95 -14
-106 -32 -293 -39 -410 -7 -107 -15 -288 -18 -408 -3 -107 -3 -106 -52 -134
-33 -19 -167 -119 -225 -168 -30 -26 -66 -55 -79 -66 -13 -10 -71 -66 -128
-124 -262 -261 -472 -578 -611 -920 -34 -83 -89 -239 -97 -273 -2 -12 -14 -58
-25 -102 -11 -44 -23 -93 -25 -110 -3 -16 -8 -37 -10 -45 -4 -15 -8 -35 -19
-115 -33 -226 -37 -472 -11 -710 3 -33 8 -71 10 -85 3 -14 7 -43 11 -65 3 -22
12 -66 19 -98 7 -31 14 -60 14 -62 1 -3 1 -6 2 -7 0 -2 2 -12 4 -23 9 -47 103
-345 115 -360 4 -5 10 -22 14 -37 9 -39 33 -35 27 5 0 4 3 7 7 7 5 0 19 24 32
53 68 151 232 402 375 576 86 103 267 288 354 361 30 25 66 55 80 67 33 28 31
27 121 94 84 62 188 131 267 178 l52 30 10 -37 c9 -34 36 -136 46 -172 2 -8
13 -46 25 -85 12 -38 22 -75 24 -82 1 -7 5 -16 9 -19 4 -4 7 -13 7 -21 0 -15
93 -269 121 -331 22 -47 57 -84 104 -111 27 -15 167 -16 1650 -19 1118 -2
1631 0 1657 8 20 5 49 25 65 43 47 54 159 341 188 487 2 8 4 15 5 15 1 0 3 7
5 15 7 34 36 166 40 180 2 8 4 26 4 40 1 14 6 32 11 40 8 13 13 12 42 -4 39
-22 284 -183 307 -202 9 -7 43 -34 76 -61 101 -81 125 -103 265 -243 124 -125
183 -191 250 -280 14 -18 31 -39 38 -46 6 -7 12 -16 12 -21 1 -4 14 -24 30
-43 17 -19 30 -40 30 -47 0 -7 4 -13 8 -13 5 0 15 -12 23 -28 8 -15 17 -29 20
-32 13 -11 113 -190 152 -271 23 -49 45 -88 48 -89 4 0 17 26 29 57 13 32 32
78 42 101 11 24 20 53 21 63 1 10 6 19 11 19 5 0 7 3 3 6 -3 3 1 25 9 47 31
86 77 275 78 320 1 15 5 27 10 27 5 0 7 2 4 5 -3 3 -2 25 3 48 19 102 24 197
24 422 -1 255 -3 285 -34 465 -19 108 -61 279 -83 340 -3 8 -16 44 -28 80 -12
36 -31 84 -41 107 -11 24 -19 45 -19 48 0 3 -21 50 -47 103 -25 53 -47 100
-47 104 -1 4 -7 13 -14 20 -6 6 -12 16 -12 20 0 4 -32 59 -70 120 -39 62 -76
122 -83 133 -7 11 -14 22 -17 25 -3 3 -21 25 -40 50 -19 25 -38 47 -42 48 -5
2 -8 8 -8 13 0 24 -211 246 -343 362 -73 63 -273 217 -282 217 -2 0 -24 14
-49 31 l-46 30 0 92 c-1 187 -13 492 -25 612 -3 28 -7 75 -10 105 -9 86 -14
142 -19 185 -3 22 -8 65 -11 95 -3 30 -8 64 -10 75 -5 24 -15 88 -20 130 -2
17 -7 41 -10 55 -3 14 -7 41 -10 60 -3 19 -7 46 -10 60 -6 25 -16 83 -19 110
-1 9 -5 21 -10 28 -4 6 -5 12 -2 12 2 0 -3 28 -11 63 -8 34 -21 91 -29 127 -8
36 -17 73 -20 83 -2 9 -6 26 -8 37 -3 11 -12 48 -22 83 -9 34 -16 68 -17 75 0
6 -3 12 -7 12 -3 0 -6 8 -7 18 -1 19 -3 25 -23 92 -7 25 -14 50 -14 55 -1 6
-19 64 -40 129 -21 66 -39 127 -41 137 -2 9 -8 25 -13 35 -6 11 -17 39 -25 64
-27 77 -88 243 -102 275 -7 17 -25 62 -40 100 -15 39 -36 90 -47 115 -11 25
-26 59 -33 75 -49 113 -203 429 -264 540 -15 28 -45 82 -65 120 -21 39 -46 81
-55 95 -9 14 -22 36 -29 50 -14 30 -35 63 -43 70 -4 3 -9 15 -13 28 -4 12 -12
22 -17 22 -5 0 -9 5 -9 10 0 6 -8 23 -19 38 -10 15 -58 88 -106 162 -48 74
-91 137 -95 140 -3 3 -9 12 -12 20 -5 14 -314 429 -327 440 -3 3 -24 28 -46
55 -21 28 -42 52 -45 55 -3 3 -30 34 -60 70 -118 140 -212 238 -248 258 -42
23 -132 25 -179 3z m113 -957 c10 -14 37 -49 59 -78 80 -105 220 -304 255
-361 13 -22 27 -42 30 -45 9 -8 142 -225 205 -335 94 -164 230 -426 295 -570
44 -99 59 -133 85 -195 15 -36 32 -76 38 -90 6 -14 11 -27 12 -30 1 -3 8 -21
17 -41 9 -20 19 -47 23 -60 4 -13 13 -37 21 -54 25 -55 154 -450 154 -471 0
-11 4 -24 9 -30 10 -10 119 -437 127 -493 2 -18 6 -37 9 -41 3 -4 7 -25 10
-46 3 -22 10 -59 15 -84 5 -25 12 -58 15 -75 2 -16 7 -41 10 -55 3 -14 7 -41
10 -60 8 -65 14 -105 21 -145 4 -22 8 -53 10 -70 1 -16 5 -50 8 -75 2 -25 7
-72 11 -105 3 -33 8 -74 10 -92 5 -40 16 -221 20 -328 8 -194 8 -262 2 -272
-4 -7 -4 -14 0 -16 10 -6 9 -139 0 -154 -4 -7 -4 -14 0 -16 5 -3 7 -70 6 -150
-1 -162 -3 -157 75 -197 23 -12 42 -26 42 -31 0 -5 6 -9 14 -9 7 0 44 -19 80
-42 219 -140 281 -181 284 -189 2 -5 8 -9 13 -9 26 0 237 -201 337 -320 76
-90 74 -88 98 -125 10 -17 21 -32 24 -35 27 -23 145 -239 189 -345 18 -44 36
-87 41 -95 4 -9 11 -30 15 -48 l7 -33 -89 64 c-48 35 -133 90 -188 122 -55 33
-101 63 -103 67 -2 4 -8 8 -14 8 -6 0 -45 20 -87 44 -42 24 -96 54 -121 68
-25 14 -63 35 -85 48 -22 13 -60 34 -85 48 -25 14 -87 49 -138 78 -52 30 -95
54 -97 54 -2 0 -30 15 -62 34 -32 18 -78 45 -103 58 -25 14 -62 35 -82 46 -26
15 -38 18 -40 9 0 -6 -2 -23 -4 -37 -2 -14 -5 -38 -8 -55 -3 -16 -8 -41 -10
-55 -3 -14 -5 -25 -6 -25 -1 0 -3 -16 -5 -35 -2 -19 -6 -48 -9 -64 -6 -34 -18
-112 -22 -141 -1 -11 -3 -20 -4 -20 -1 0 -3 -9 -4 -20 -3 -27 -16 -106 -21
-136 -3 -13 -7 -42 -10 -64 -3 -22 -8 -52 -10 -67 -14 -85 -24 -149 -30 -193
-2 -16 -4 -30 -5 -30 -2 0 -7 -27 -14 -80 -4 -22 -16 -82 -27 -133 l-21 -92
-1233 0 -1234 0 -19 63 c-11 34 -33 118 -50 187 -17 69 -34 139 -38 155 -10
43 -11 47 -17 80 -4 17 -11 48 -17 70 -5 22 -13 55 -16 74 -3 19 -17 82 -30
140 -14 58 -34 149 -45 201 -11 52 -22 104 -25 115 -17 80 -26 119 -28 132 -1
7 -5 15 -8 19 -5 5 -309 -158 -443 -238 -16 -9 -43 -24 -60 -32 -16 -9 -61
-34 -100 -56 -38 -22 -82 -45 -97 -51 -16 -6 -28 -15 -28 -20 0 -5 -5 -9 -11
-9 -16 0 -352 -199 -369 -219 -5 -6 -56 -42 -77 -54 -12 -7 -11 4 1 38 5 11
14 36 21 55 7 19 22 56 34 83 11 26 19 48 18 50 -1 1 7 16 19 32 11 17 23 38
27 47 7 19 127 220 136 228 3 3 26 32 51 65 24 33 52 69 61 80 59 68 69 81 69
88 0 4 4 7 8 7 4 0 44 35 88 78 89 86 127 119 164 143 14 10 35 26 47 38 12
12 26 21 31 21 5 0 25 13 43 30 19 16 40 30 47 30 6 0 12 5 12 10 0 6 5 10 10
10 6 0 32 15 58 33 53 36 65 43 137 87 106 63 95 19 100 405 2 187 6 372 9
410 10 161 16 241 21 265 2 14 7 57 10 95 3 39 7 77 10 85 2 8 7 42 10 75 4
33 9 71 10 85 2 14 6 43 9 65 3 22 9 63 15 90 5 28 12 70 16 95 4 24 8 47 10
50 2 3 6 26 10 50 3 25 10 61 15 80 5 19 12 51 15 70 10 57 111 449 136 525
12 39 22 72 22 75 -1 8 107 322 123 357 8 17 14 35 14 40 0 4 6 20 14 34 10
21 22 53 31 89 0 3 11 27 23 54 12 27 22 50 22 53 0 2 9 25 21 51 29 67 36 83
51 120 7 17 16 32 19 32 3 0 6 6 6 13 0 13 159 337 226 462 93 172 210 369
235 398 8 9 11 17 6 17 -5 0 -4 4 2 8 10 7 74 99 74 108 0 2 12 22 28 43 15
21 34 49 42 61 44 65 161 227 174 241 9 9 16 20 16 25 0 5 8 17 18 26 9 8 28
30 41 47 28 38 33 38 57 5z"/>
<path d="M5728 8105 c-2 -2 -30 -5 -63 -9 -114 -11 -202 -37 -309 -93 -257
-131 -425 -366 -470 -650 -20 -132 -6 -289 36 -408 22 -59 90 -195 99 -195 5
0 9 -6 9 -12 0 -28 174 -208 200 -208 5 0 10 -4 10 -8 0 -5 16 -17 35 -28 19
-10 35 -23 35 -28 0 -5 3 -6 7 -3 3 4 11 2 18 -3 33 -27 195 -84 280 -98 67
-11 275 -4 350 12 113 24 242 82 341 152 65 47 180 164 197 202 6 12 13 22 17
22 14 0 98 197 116 270 29 122 24 341 -10 438 -8 23 -13 42 -11 42 2 0 -9 29
-25 65 -73 162 -198 308 -344 400 -43 28 -81 50 -85 51 -3 0 -22 7 -41 16 -67
29 -117 43 -208 59 -54 10 -178 19 -184 14z"/>
<path d="M4385 2672 c-142 -42 -246 -145 -298 -297 -15 -46 -17 -1474 -1
-1535 41 -157 168 -286 324 -327 66 -17 240 -5 265 18 5 5 15 9 22 9 22 0 95
52 145 102 62 64 105 152 115 238 8 62 6 1428 -2 1465 -16 78 -65 169 -119
220 -26 26 -104 79 -131 90 -89 36 -228 44 -320 17z"/>
<path d="M5620 2676 c-58 -15 -130 -47 -130 -58 0 -4 -6 -8 -13 -8 -8 0 -37
-24 -65 -54 -51 -53 -92 -127 -111 -201 -12 -46 -10 -1982 2 -2026 53 -193
220 -323 421 -328 41 -1 94 3 118 9 116 31 225 114 281 214 59 105 57 72 54
1146 -2 947 -3 987 -21 1030 -11 25 -26 52 -33 61 -7 8 -13 20 -13 26 0 16
-117 121 -158 142 -96 48 -247 69 -332 47z"/>
<path d="M6870 2670 c-30 -9 -75 -28 -99 -41 -80 -44 -170 -161 -196 -256 -7
-22 -16 -216 -15 -293 0 -8 0 -80 0 -160 0 -80 0 -152 0 -160 0 -8 0 -80 0
-160 0 -80 0 -152 0 -160 0 -8 1 -71 3 -140 1 -69 -2 -131 -7 -137 -5 -8 -5
-13 0 -13 5 0 9 -16 9 -35 0 -19 -4 -35 -8 -35 -5 0 -5 -5 -1 -12 4 -6 8 -53
9 -102 2 -98 12 -164 28 -183 5 -7 6 -13 1 -13 -5 0 -4 -4 1 -8 6 -4 18 -23
28 -42 20 -40 92 -118 128 -139 158 -95 306 -105 457 -30 108 53 185 143 222
262 19 59 20 96 20 794 0 690 -2 734 -19 786 -17 50 -38 88 -66 125 -41 54
-141 132 -169 132 -8 0 -17 4 -20 8 -9 15 -108 31 -181 30 -38 0 -95 -8 -125
-18z"/>
</g>
</svg>
